# xmcd
#
# Track frame offsets: 
#        150
#        12246
#        24783
#        36507
#        49957
#        62783
#        76499
#        90380
#        103448
#        114529
#        124060
#        137585
#        150987
#        162418
#        176434
#        187954
#        200414
#        213019
#        224835
#        237991
#        250576
#        265360
#        279906
#        292777
#        300902
#
# Disc length: 4172 seconds
#
# Revision: 3
# Processed by: cddbd v1.5.2PL0 Copyright (c) Steve Scherf et al.
# Submitted via: ExactAudioCopyFreeDBPlugin 1.0
#
DISCID=57104a19
DTITLE=Various Artist - Tumbling Tumbleweeds
DYEAR=1900
DGENRE=Country
TTITLE0=The Sons Of The Pioneers - Tumbling Tumbleweeds
TTITLE1=Ray Whitley - Wah-Hoo!
TTITLE2=Gene Autry - Back In The Saddle Again
TTITLE3=Vaughn Monroe - Riders In The Sky (A Cowboy Legend)
TTITLE4=Roy Rogers - Blue Shadows On The Trail
TTITLE5=The Black Brothers - When The Bloom Is On The Sage
TTITLE6=Tex Ritter - Git Along, Little Dogies
TTITLE7=Patsy Montana - I'm An Old Fashioned Cowhand
TTITLE8=Jimmy Wakely Trio - Cimmaron(Roll On)
TTITLE9=Johnny Bond and His Red River Valley Boys - Red River Valley
TTITLE10=Bob Wills - Cherokee Maiden
TTITLE11=The Sons Of The Pioneers - The Everlasting Hills Of Oklahoma
TTITLE12=Eddie Arnold - Cattle Call
TTITLE13=Bing Crosby and The Andrews Sisters - Don't Fence Me In
TTITLE14=Roy Rogers - Hi-Yo Silver
TTITLE15=Bob Atcher and Bonnie Blue Eyes - You Are My Sunshine
TTITLE16=Al Dexter - Pistol Packin Mama
TTITLE17=Frankie Laine - Mule Train
TTITLE18=Gene Autry - South Of The Border (Down Mexico Way)
TTITLE19=The Sons Of The Pioneers - Song Of The Bandit
TTITLE20=Carson Robison and His Pioneers - The Strawberry Roan
TTITLE21=John "Dusty" King - Deep In The Heart Of Texas
TTITLE22=The Prairie Ramblers - Lucy Long
TTITLE23=Johnny Bond and His Red River Valley Boys - Goodbye Old Paint
TTITLE24=Louise Massey and The Westerners - My Adobe Hacienda
EXTD=
EXTT0=
EXTT1=
EXTT2=
EXTT3=
EXTT4=
EXTT5=
EXTT6=
EXTT7=
EXTT8=
EXTT9=
EXTT10=
EXTT11=
EXTT12=
EXTT13=
EXTT14=
EXTT15=
EXTT16=
EXTT17=
EXTT18=
EXTT19=
EXTT20=
EXTT21=
EXTT22=
EXTT23=
EXTT24=
PLAYORDER=
